<svg width="71" height="78" viewBox="0 0 71 78" fill="none" xmlns="http://www.w3.org/2000/svg">
<path d="M45.1649 32.1535C45.1326 32.3596 45.1522 32.5706 45.222 32.7673C45.4164 33.3393 45.2697 33.9234 45.2594 34.5038C45.2531 34.8712 45.249 35.2385 45.205 35.6008C45.1682 35.9014 45.1415 36.2073 45.0847 36.5025C45.0516 36.5502 45.0198 36.5982 44.9896 36.6468C44.9833 36.6266 44.9729 36.6079 44.9588 36.592C44.9767 36.5962 44.9954 36.5962 45.0133 36.592C44.3945 35.1747 44.6486 33.533 45.1649 32.1535ZM38.6011 36.8174C38.6011 36.4445 38.6002 36.0711 38.5984 35.697C38.596 35.5723 38.584 35.4479 38.5627 35.325C39.2155 34.5479 39.294 33.677 38.2508 33.0541L38.2474 33.002C39.7889 33.4816 39.1584 35.3113 38.9768 36.7774C38.8716 36.786 38.7447 36.7994 38.6011 36.8174ZM26.0445 37.6072H26.1113C26.0846 37.6573 26.0592 37.7024 26.0358 37.7408L26.0445 37.6072ZM7.80344 41.3395C7.71861 40.6742 7.65628 40.0024 7.61642 39.3241C7.79916 39.3195 7.97843 39.2733 8.14051 39.1887C8.30259 39.1042 8.44317 38.9837 8.55149 38.8365L8.56017 38.8418L9.14726 37.6062H9.31423C9.23675 38.6081 9.21037 40.3236 10.3645 39.6306C10.2179 40.0377 10.0376 40.4839 10.0576 40.9381C9.28718 41.0559 8.52844 41.2035 7.80344 41.3395ZM38.0731 6.27793C37.6757 6.26301 37.2763 6.25545 36.8749 6.25522C34.8282 6.25428 32.7863 6.45315 30.7783 6.84899C30.8847 6.91786 30.984 6.9973 31.0745 7.08609C31.5527 7.55563 31.8426 8.35511 32.5018 8.57819C34.08 9.10917 33.0632 9.80379 33.0074 10.289C33.3891 10.5809 33.9181 10.7412 34.0737 11.2999C34.4644 12.7025 32.8214 12.7359 32.5566 12.8695C32.1668 13.0682 31.8356 13.1032 31.3543 13.2034C31.1623 13.2442 31.1376 13.3116 30.9493 13.3597C30.6454 13.4378 30.2991 13.3674 29.9781 13.4759C30.0519 13.6613 30.1388 13.6763 30.3074 13.7882C30.4971 13.6993 30.2072 13.5427 31.0134 13.7037C31.4939 13.7995 31.905 14.069 32.3802 14.2023C32.7265 14.2991 32.7399 14.2981 32.9015 14.619C33.0835 14.9804 32.9379 15.8152 32.9623 16.3135C32.992 16.921 33.0365 17.499 33.0371 18.1028C33.0371 18.7807 33.155 18.5313 33.2331 18.8468C33.2789 19.0329 33.1904 18.9768 33.2635 19.1631C33.3176 19.3007 33.3607 19.2469 33.4305 19.489C33.7054 20.4548 34.0717 21.3468 34.3589 22.3039C34.4334 22.552 34.4925 22.7805 34.5683 23.0309C34.7593 23.6514 34.6494 23.3094 34.5619 23.6344C34.6504 23.9186 34.7793 24.1136 34.8862 24.3838C35.1113 23.5806 35.2896 22.8179 35.2295 22.6095C35.3277 21.3278 35.4052 20.0444 35.5301 18.766C35.5782 18.2765 35.7374 17.7976 35.84 17.313C35.8633 17.1975 35.8547 17.0749 35.859 16.9674C35.8213 16.9447 35.8066 16.9293 35.7899 16.9273C35.1844 16.8482 35.2996 16.8742 35.3668 16.3436C35.4035 16.1117 35.4538 15.8822 35.5174 15.6563C35.6997 14.9413 35.7605 14.2203 35.7354 13.4796C35.7187 12.9787 35.7859 12.4684 35.861 11.9691C35.9612 11.3086 36.372 10.8557 36.9397 10.5415C37.6226 10.1651 38.2989 9.77774 38.9985 9.44112C39.3992 9.2501 39.5869 9.01466 39.4299 8.54646C39.0843 8.6914 38.9985 8.42691 38.8746 8.17244C38.7116 7.83848 38.4768 7.53793 38.3322 7.19596C38.21 6.90676 38.1589 6.5855 38.0731 6.27793ZM65.7543 42.6258C65.7022 42.928 65.6454 43.2285 65.584 43.5275C65.1725 43.262 64.793 42.9501 64.4529 42.5978C64.9238 42.5981 65.3559 42.6085 65.7543 42.6258ZM62.364 37.6072H62.682C62.693 39.8277 63.8608 41.9082 65.5038 39.1157C65.6424 39.843 65.8158 40.3783 66.0145 40.7557C65.9664 41.2072 65.9083 41.6558 65.8401 42.1015C65.386 42.2211 64.9051 42.3624 64.3908 42.5333C63.4143 41.5021 62.5367 40.3606 61.6544 39.2382C61.6878 39.1588 61.7349 39.0462 61.7589 38.9764H61.7626L62.364 37.6072ZM60.7437 29.6438C60.8355 30.1835 60.7527 30.7235 60.565 31.2668C60.4578 31.5771 60.3647 31.892 60.2645 32.2042C60.1009 32.7158 59.986 33.2281 60.0337 33.7775L60.0367 33.8145C59.831 33.9772 59.6283 34.2243 59.4373 34.5649C59.5428 33.1507 59.9806 31.3036 60.7437 29.6438ZM4.55175 41.7402C4.44845 40.9247 4.37587 40.1003 4.33402 39.267C4.71906 39.2589 5.1355 39.1177 5.56663 38.8078C5.60292 39.7736 5.68229 40.7277 5.80474 41.6701C5.38932 41.7237 4.97056 41.7472 4.55175 41.7402ZM68.1918 46.6339C66.734 51.683 64.0795 56.3058 60.4536 60.1099C56.8277 63.9139 52.3374 66.787 47.364 68.485C46.9689 70.9829 45.6953 73.2578 43.7724 74.9004C41.8496 76.543 39.4037 77.4455 36.8747 77.4455C34.3458 77.4455 31.8998 76.543 29.977 74.9004C28.0541 73.2578 26.7806 70.9829 26.3855 68.485C21.6579 66.8738 17.3641 64.1974 13.8356 60.6625C9.33627 56.1595 6.14704 50.3465 4.88804 43.8441C5.2948 43.7773 5.70556 43.6875 6.11331 43.5873C7.32154 49.8469 10.3899 55.4426 14.7202 59.7762C17.9796 63.0413 21.9196 65.5465 26.2589 67.1131C26.2562 67.013 26.2549 66.9148 26.2549 66.8149C26.2546 66.2089 26.3059 65.6039 26.4082 65.0066C17.0278 61.4159 9.96143 53.141 8.06993 43.0406C11.1089 42.1346 13.2165 41.4637 10.7779 45.7316C11.9134 45.0206 16.2988 42.3891 13.0214 41.1565C13.717 40.2317 14.4818 38.7186 15.0679 37.6066L15.0475 38.8696C15.3183 41.0276 17.1003 40.6779 17.9883 39.1033C18.2775 40.6358 19.5285 42.0207 20.8997 40.5774C21.814 41.4457 23.0036 40.8993 23.4901 39.8614C23.1749 44.8743 26.8944 39.6787 27.5082 38.6164C28.0456 41.1685 31.2749 40.1736 32.3702 38.6214L32.3652 38.6178C32.557 38.3099 32.6837 37.966 32.7376 37.6072H35.4716C33.9548 38.212 32.7372 39.1708 33.4946 40.5714C34.7884 42.9645 35.0579 38.6258 38.7734 38.4311C38.5286 40.746 39.269 42.1009 40.3533 44.0668C40.3533 42.2031 40.2889 40.3379 40.562 38.4922C41.2002 38.5827 41.8394 38.7213 42.4322 38.9811C43.4317 44.9238 48.5198 43.7396 45.6641 39.442C46.3821 39.6363 47.0881 39.1881 47.5743 38.6709C47.8038 41.81 50.0509 39.9653 50.979 38.4371C51.186 39.5959 52.2206 40.0735 53.1664 39.2229V39.2192L53.3353 39.0375C53.8062 39.6173 54.5419 39.4383 55.0238 38.9778C55.108 39.2579 55.2308 39.5288 55.4402 39.7312V39.7365C55.9432 40.1586 56.5246 40.034 56.96 39.5665C56.5333 41.4303 59.0078 41.7666 59.4313 39.6891L60.2017 40.8542L60.6358 41.5505C62.0384 43.9216 63.5332 45.3141 64.9568 46.0378C62.344 54.763 55.7799 61.7783 47.3443 65.0062C47.4465 65.6036 47.4978 66.2085 47.4975 66.8146C47.4975 66.9141 47.4962 67.0135 47.4935 67.1128C52.0975 65.4479 56.2486 62.7301 59.6157 59.1762C62.9829 55.6223 65.4729 51.3306 66.8871 46.6436C67.3217 46.6974 67.7615 46.6938 68.1952 46.6329L68.1918 46.6339ZM68.9876 43.1511C68.9188 43.5534 68.8426 43.9533 68.7589 44.3507C68.4045 44.4008 67.9688 44.3934 67.4899 44.3019C67.5954 43.8153 67.6897 43.3244 67.7727 42.8292C68.2893 42.919 68.6901 43.0296 68.9876 43.1505V43.1511ZM69.4338 38.8529C69.3986 39.7879 69.3246 40.7131 69.2117 41.6283C68.7878 41.6168 68.3636 41.637 67.9427 41.6888C67.9772 41.4258 68.008 41.1622 68.0352 40.898C68.5311 40.4007 69.0197 39.6483 69.4338 38.8522V38.8529ZM67.2454 25.7773C68.5383 29.1005 69.2749 32.614 69.4258 36.1766C69.0995 36.6127 68.6944 37.2192 68.2028 38.0227C68.2046 37.8844 68.2055 37.7462 68.2055 37.6079C68.2107 33.4426 67.3838 29.3182 65.7733 25.4768C66.2772 25.4953 66.7746 25.5969 67.2454 25.7773ZM62.9561 34.5826C64.4332 33.1046 64.3921 35.0124 64.319 35.8283C64.2967 36.083 64.2856 36.3115 64.2856 36.5139C64.2856 37.0148 64.3232 37.3883 64.3985 37.6343C64.688 38.5804 65.3836 37.2689 65.5272 36.9487C65.8675 36.1893 66.0662 34.6578 66.3781 34.2861C66.6597 33.9498 67.2194 33.5293 67.547 34.0857C67.9257 34.7322 67.5109 35.9892 67.2163 36.608C66.8988 37.2626 66.9231 38.4197 67.2163 39.0459C67.2881 39.1998 67.374 39.3147 67.4728 39.3899C68.2656 39.9943 72.2644 32.4981 69.5837 37.7839C69.1613 38.6188 68.5198 39.5729 67.8679 40.2451C67.6361 40.484 67.458 40.6034 67.3336 40.6034C66.866 40.6034 66.5191 40.2867 66.2926 39.6533C66.0745 39.0456 65.9654 38.1385 65.9654 36.9323V36.7456C65.5893 37.5752 65.041 38.8809 64.4663 39.5071C64.2421 39.7504 64.024 39.8722 63.8121 39.8724C63.587 39.8724 63.4208 39.7284 63.3135 39.4403C62.8666 38.2404 63.8889 35.0355 63.3225 35.0355C62.6987 35.0355 61.3879 38.2641 61.1308 38.8732C61.1288 37.3788 61.8925 35.6469 62.9561 34.5826ZM59.3799 37.4165C59.4183 37.4588 59.4528 37.5044 59.483 37.5528C61.456 35.3537 61.0162 32.999 59.6363 36.7389C59.5545 36.9617 59.4583 37.1965 59.3799 37.4165ZM47.3496 34.7115C47.4084 34.7903 47.4812 34.8576 47.5643 34.9099C47.7339 35.0191 47.9183 35.1032 48.112 35.1594C49.3894 30.3525 46.3938 33.4065 47.3506 34.7102L47.3496 34.7115ZM49.4331 35.0752L49.5667 34.9446L49.6238 34.9707C49.554 35.157 49.4515 35.4529 49.4131 35.6312C49.2628 36.3325 49.2221 37.4372 49.393 38.1359C49.4119 38.2277 49.4451 38.3159 49.4916 38.3974C49.7851 38.8502 51.1082 35.3861 51.1713 35.2115C51.194 35.149 51.2181 35.0879 51.2435 35.0265C50.9847 34.9516 50.7172 34.8989 50.6424 34.6027C50.6296 34.5511 50.6234 34.4981 50.624 34.445C50.624 34.1154 51.1409 33.5971 51.4311 33.4642C52.0082 33.1991 52.272 33.6693 52.431 34.1194C52.5512 34.4607 52.4754 35.3173 52.4621 35.695C52.4287 36.5807 52.3953 38.017 52.7539 37.7138C53.0261 37.483 53.4292 36.3195 53.5187 36.039L53.5207 36.0333C53.6075 35.8126 53.6816 35.5872 53.7428 35.3581C53.9351 34.6471 53.7761 34.3792 54.3409 34.0607C54.4724 34.0273 54.6969 33.9738 54.6969 34.1962C54.6969 34.3582 54.7029 34.6691 54.6635 34.8217C54.5245 35.3778 53.9956 39.2269 55.0555 36.7012C55.2275 36.2901 55.8844 34.0426 55.9164 34.0069C56.0076 33.9047 56.5777 33.526 56.5777 33.9318C56.5777 34.0737 56.58 34.4397 56.5443 34.5606C56.2173 35.6506 56.1469 36.8401 56.2868 37.9669C56.3055 38.1192 56.3412 38.6682 56.5873 38.3723C56.9176 37.9358 57.494 35.9385 57.8851 35.9385C57.9612 35.9385 58.0921 36.0483 58.1522 36.0991C58.2568 32.7285 58.8986 27.8919 61.2196 25.2323C62.0094 24.3273 62.5968 23.8855 63.7833 23.7513C64.3941 23.6825 66.1367 23.7606 66.1367 24.6479C61.6617 22.9511 58.7854 31.3466 58.7854 35.2545V36.4972C58.783 36.5734 58.7908 36.6497 58.8085 36.7239L59.0706 37.0432L59.458 36.0186C59.6143 35.5845 60.1079 34.4594 60.4932 34.1972C60.7083 34.0503 60.9801 34.0907 61.076 34.3422C61.2547 34.8037 61.622 35.5631 61.5161 35.9555C61.3912 36.419 60.9691 36.7837 60.6432 37.112C60.367 37.4038 60.1292 37.6887 59.8671 37.9802L61.9553 40.6185C63.1994 42.2459 64.3384 43.4661 65.3723 44.2789C69.6802 47.6655 73.1533 41.9723 68.0609 41.9746C72.5175 40.4962 71.8873 47.0093 66.297 45.9567C65.9535 45.8909 65.6157 45.7983 65.2868 45.6795C63.225 44.9448 62.3063 42.9792 61.1732 41.2359C60.9835 40.9124 60.6966 40.4614 60.3126 39.8828C59.9613 39.3529 59.5299 38.7184 59.0185 37.9792C59.0185 38.2437 58.8128 40.3189 58.4588 40.555C58.019 40.8472 57.457 40.1028 57.5748 39.6907C57.6183 39.5385 57.6714 39.3428 57.7268 39.128C57.8938 38.4828 58.0841 37.6653 58.1165 37.3247C58.1265 37.2202 58.1315 37.1317 58.1315 37.0599C58.1315 35.4466 57.0963 38.373 56.6248 38.9968C55.7187 40.193 55.4429 38.2955 55.4663 37.5772C55.4716 37.412 55.4794 37.251 55.4897 37.0943L55.509 36.8328C55.4511 36.9886 55.3963 37.1289 55.3444 37.2536C55.2878 37.3898 55.2342 37.5123 55.1834 37.6209C54.4153 39.2603 53.4823 39.1798 53.6052 37.3651C53.6101 37.2905 53.6167 37.2152 53.6252 37.139C53.4471 37.6041 53.2988 37.9432 53.1804 38.1562C53.0245 38.4392 52.8637 38.6561 52.6978 38.8068C52.5242 38.9626 52.3433 39.0494 52.1552 39.0673C52.0876 39.0746 52.0192 39.064 51.9571 39.0363C51.895 39.0087 51.8413 38.9651 51.8015 38.91C51.7171 38.804 51.6543 38.6437 51.6132 38.4291C51.5675 38.1725 51.5378 37.9133 51.5243 37.653C51.5045 37.3413 51.4947 36.9782 51.4949 36.5636V35.9371L51.2278 36.5606C51.1706 36.7265 51.1149 36.8765 51.0608 37.0108C50.9145 37.3705 49.5056 39.8611 48.9793 39.8611C47.8722 39.8611 48.2095 37.3952 48.3448 36.7496C48.3893 36.5372 48.4338 36.3405 48.4784 36.1595H48.3227C48.2397 36.4007 48.1524 36.6225 48.0609 36.8251C47.773 37.4623 47.187 38.3613 46.5581 38.7083C45.38 39.3548 44.8463 37.8594 45.6207 36.8465C46.7512 35.3687 45.5002 37.9662 46.6383 37.6931C47.1643 37.5675 47.6482 36.5399 47.8228 36.0767C47.3246 35.9635 46.5204 35.6202 46.3307 35.0822C46.0365 34.3051 46.3511 33.4018 46.9091 32.8234C47.4378 32.2747 48.4904 31.7073 48.7338 32.8457C48.8601 33.6362 48.7038 34.4758 48.5618 35.2559C48.6166 35.2646 48.6704 35.2716 48.7231 35.2766C48.9455 35.2949 49.2698 35.2332 49.4331 35.0739V35.0752ZM44.5574 39.7619C44.6503 40.5248 44.7629 41.105 44.8954 41.5024C45.0183 41.8718 45.1511 42.0738 45.2938 42.1086C45.6678 41.3421 45.0433 40.3119 44.5571 39.7605L44.5574 39.7619ZM46.3487 28.7996C46.3497 28.8371 46.3463 28.8747 46.3387 28.9115C46.3237 28.9719 46.2906 29.0023 46.2385 29.0023C44.2378 29.0023 44.3898 35.3534 44.3898 36.9026C44.3898 37.2619 44.3975 37.6159 44.4128 37.9646C44.4277 38.3081 44.45 38.6474 44.4796 38.9824C44.7072 39.2104 44.9164 39.4561 45.1051 39.7171C45.1985 39.8469 45.2845 39.982 45.3626 40.1215C45.4385 40.2575 45.5062 40.3979 45.5653 40.542C45.7543 41.0122 46.1801 41.9983 45.7196 42.4104C45.6307 42.4899 45.223 42.7494 45.1185 42.7494C44.9404 42.7494 44.7479 42.6415 44.5411 42.4258C44.3449 42.2214 44.1313 41.917 43.9002 41.5125C43.4656 40.7252 43.1641 39.7395 42.9955 38.5553C42.7848 38.4494 42.5681 38.3556 42.3467 38.2745C41.6147 38.0053 40.8148 37.8684 40.0387 37.8096C39.8313 38.9732 39.7267 40.1528 39.7262 41.3348V41.64L39.5796 41.3729C39.098 40.4992 39.3738 38.768 39.469 37.7896H39.3354C38.2721 37.7896 34.9219 37.9933 34.9219 39.6089C34.9219 40.1185 35.5474 40.544 34.5482 40.544C34.3539 40.544 34.2061 40.4857 34.1048 40.369C34.0035 40.2523 33.9543 40.0875 33.9572 39.8744C33.9572 39.648 34.0752 39.4002 34.3111 39.131C35.4496 37.8323 37.9145 37.4342 39.5315 37.3728L39.5532 37.2132C39.5639 37.125 39.5745 37.0345 39.5842 36.9427C39.7178 35.6686 40.4859 33.5734 39.1094 32.7566C37.7735 31.9387 35.5605 32.1889 34.2307 32.9523C33.9727 33.0973 33.7353 33.2761 33.5247 33.4839C32.8772 34.1315 32.5178 35.161 33.4495 35.7662C34.5282 36.4674 36.9353 36.1759 37.655 35.0983C38.1873 34.2968 37.7038 33.7431 36.7797 33.8346C36.6067 33.8546 36.4347 33.8807 36.2624 33.9057L36.5416 33.7157C37.4329 33.1102 38.3115 33.4819 38.3115 34.5733C38.3115 36.2053 35.0806 36.7717 33.7728 36.4354C33.4994 36.3699 33.241 36.253 33.0114 36.0907C31.8897 35.2702 32.4029 33.8276 33.2679 32.993C34.6464 31.6622 37.2476 30.9716 39.1177 31.4235C39.4612 31.5028 39.7901 31.6358 40.0922 31.8175C40.3838 31.9956 40.6029 32.2165 40.7494 32.4801C40.8959 32.7437 40.9691 33.0478 40.9691 33.3924C40.9683 33.5536 40.9564 33.7145 40.9334 33.874C40.7831 34.9597 40.3744 36.2714 40.1319 37.3738C41.1872 37.3796 42.1147 37.5649 42.9144 37.9298C42.9044 37.7962 42.8964 37.6588 42.8903 37.5174C42.883 37.3264 42.8787 37.1333 42.8787 36.9387C42.8787 34.6614 43.1602 29.6178 45.7456 28.5595C45.931 28.4927 46.3487 28.5224 46.3487 28.7996ZM5.82277 33.6663C5.72045 33.4702 5.57443 33.3003 5.39598 33.1697C5.23935 33.061 5.05813 32.9931 4.86867 32.972C4.4312 33.525 4.10203 34.0941 3.88118 34.6791C3.65849 35.2652 3.54442 35.8869 3.54456 36.5139C3.54456 38.4558 4.82292 38.8031 5.66749 37.323C6.25056 36.3011 6.40518 34.7239 5.82277 33.6663ZM11.8339 41.5181C11.8897 41.5255 11.9441 41.5335 11.9982 41.5418C12.98 41.7008 13.9715 42.0665 13.3006 43.1872C13.0722 43.5679 12.9035 43.6644 12.5529 43.8838C13.1079 42.912 13.0051 41.9269 11.5006 41.9269C9.368 41.9269 7.77138 42.6719 5.80107 43.1992C2.34367 44.1263 0 42.1907 0 38.6445C0.000992462 38.3474 0.0254469 38.0508 0.0731353 37.7575C0.450166 35.3724 1.9259 32.7028 4.6289 32.7028C4.96938 32.3291 5.34354 31.9874 5.74663 31.6823C6.99561 30.7395 11.6268 28.8213 11.6268 31.6302C11.6268 31.9107 11.2528 31.9548 11.2528 31.6923C11.2528 29.2544 7.02767 31.0117 5.95335 31.8776C5.62235 32.1446 5.31631 32.4412 5.03899 32.7636C5.2437 32.8136 5.43749 32.9007 5.61071 33.0207C5.81919 33.1686 5.99316 33.3599 6.12066 33.5814C6.81895 34.7606 6.56181 36.4514 5.86385 37.5658C5.46645 38.2003 4.91109 38.6451 4.13465 38.6451C3.07435 38.6451 2.87999 37.5217 2.90638 36.6852C2.90715 36.0094 3.04342 35.3407 3.30712 34.7185C3.55558 34.1241 3.91914 33.541 4.3978 32.9693C3.97268 32.9873 3.50482 33.1189 3.1712 33.3847C1.84441 34.442 1.46037 36.9166 1.46037 38.5045C1.46037 38.8102 1.47306 39.0997 1.49844 39.3728C1.76827 42.2645 3.04263 43.0687 5.81943 42.5788C7.44344 42.2922 9.5293 41.4767 11.1069 41.4767L11.0922 41.469C10.4126 41.1314 10.7769 40.3363 10.968 39.7946C11.4385 38.4625 11.8125 37.5775 12.4116 36.2003C12.595 35.7505 12.5058 35.4626 12.1508 35.8663C11.9337 36.178 11.5319 36.8072 10.9452 37.7538L10.5736 38.4217C10.5485 38.4671 10.5258 38.5102 10.5068 38.5506C10.1464 39.2686 9.89664 39.103 9.85523 38.6428C9.83052 38.3653 10.2617 35.0715 9.99382 35.0715C9.65653 35.0715 8.91984 36.6007 8.88511 36.6865C8.62395 37.3524 8.31305 37.5808 8.09331 38.3974L8.08896 38.4047C7.81212 38.9287 7.06507 38.7537 7.42106 38.1646C7.49857 38.0419 7.5865 37.9262 7.68388 37.8186C7.73299 37.6094 7.77 37.3976 7.79475 37.1841C7.82029 36.9624 7.833 36.7394 7.83282 36.5162C7.83209 36.4003 7.81854 36.2848 7.79242 36.1719C7.77806 36.1088 7.75902 36.0437 7.73865 35.9765C7.41138 36.8782 7.21234 37.7842 6.34741 38.2501L6.47498 38.0183C6.94618 37.1611 7.1559 36.3005 7.53193 35.4232C7.35461 34.8398 7.54963 33.3647 8.05724 33.1269C8.50073 32.9182 8.92217 32.9984 8.92217 33.5457C8.25427 35.5828 8.49972 36.0006 8.40522 36.8061C8.67238 36.383 8.62963 36.4113 8.83201 35.8847C8.95785 35.4975 9.11119 35.1197 9.29086 34.7543C9.42711 34.4871 10.5318 32.8047 10.8604 33.9598L10.8634 33.9702V34.1371C10.8613 35.1534 10.7936 36.1685 10.6607 37.1761C10.6385 37.3373 10.6154 37.4828 10.5916 37.6126C10.8922 37.0338 11.3774 36.0857 11.7865 35.6028C11.9494 35.4105 12.4821 34.9386 12.794 35.1834C13.4285 35.6893 12.9196 37.3685 12.6404 38.0116C12.3358 38.7129 11.8025 39.6707 11.7177 40.3904C11.7097 40.4572 11.705 40.5106 11.7033 40.549C13.4509 39.2913 13.9665 36.0607 15.4412 34.5853C15.7307 34.2959 16.0023 34.1512 16.2561 34.1512C17.1995 34.1512 16.8515 35.302 16.8041 35.8299C16.7818 36.0846 16.7707 36.3132 16.7707 36.5155C16.7707 37.0165 16.8083 37.3899 16.8836 37.6359C16.9504 37.853 17.0421 37.9615 17.1587 37.9615C17.4259 37.9615 17.7104 37.6245 18.0123 36.9503C18.1693 36.5999 18.2868 36.308 18.365 36.0747C18.4411 35.8474 18.4792 35.6781 18.4792 35.5668C18.4792 34.6057 19.476 33.141 20.0314 34.0887C20.1265 34.2512 20.1741 34.4899 20.1743 34.8047C20.1743 36.3743 18.9073 37.3554 19.7004 39.0489C20.518 40.7951 22.1567 36.3946 22.6766 37.3103C22.6876 37.4503 22.4869 38.767 22.4963 38.8646L22.505 38.9591C22.8252 38.221 24.3851 33.7621 25.2253 33.7621C25.2638 33.7611 25.3021 33.7664 25.3389 33.7778C25.8281 33.9428 25.6174 35.2672 25.5984 35.5715C25.5937 35.6499 25.1939 39.2833 25.4895 39.2833C25.9393 39.2833 27.6889 36.1729 27.8241 35.9538C28.0369 35.6042 28.6567 34.2664 28.7786 34.1401C28.8572 34.0574 28.9523 33.9921 29.0577 33.9483C29.1632 33.9046 29.2766 33.8835 29.3907 33.8863C29.8215 33.8863 30.008 34.1424 29.9501 34.6544C29.9167 35.0652 29.6645 35.4893 29.5847 36.0236C29.4635 36.8625 29.3767 37.6142 29.3947 38.4615C29.3969 38.5728 29.4005 38.6863 29.4054 38.8021C29.8592 39.3645 30.9486 38.8826 30.9489 38.2825C30.8135 38.2737 30.6808 38.2397 30.5579 38.1823C30.0282 37.9288 29.8696 37.2045 30.078 36.6925C30.1177 36.5928 30.1722 36.4996 30.2396 36.416C30.305 36.3353 30.389 36.2716 30.4844 36.2303C31.0898 35.9695 32.0396 36.4975 32.1261 37.1988C32.1318 37.246 32.1345 37.2935 32.1341 37.3411V37.3868C32.1147 37.6417 32.0446 37.8901 31.9281 38.1175C31.8487 38.2848 31.743 38.4384 31.6152 38.5723C31.5203 38.6552 31.4248 38.7348 31.3286 38.8111C30.7609 39.263 30.286 39.5749 29.5316 39.5749H29.5273C29.2517 39.5616 28.9835 39.4813 28.7458 39.3411C28.4998 39.1903 28.2898 38.9874 28.1307 38.7467L28.1197 38.7303C28.0132 37.7929 28.1384 37.0345 28.296 36.1161C28.2573 36.1806 28.2139 36.2497 28.1668 36.3192C27.3155 37.5995 26.7084 38.8492 25.8976 40.0521C25.6157 40.4751 25.3708 40.7937 25.1629 41.0078C24.9429 41.2338 24.7574 41.3468 24.6062 41.3468C23.3075 41.3468 24.9632 35.9836 24.7621 35.526C24.3347 35.9522 23.7443 37.9615 23.2847 38.8625C23.1661 39.0943 23.0461 39.3392 22.9247 39.5972C22.3881 40.7393 21.5689 40.4251 21.2473 40.0287C21.1571 40.1643 21.2754 39.0993 21.1805 39.2296C20.8492 39.6782 20.5743 40.0152 20.3557 40.2408C19.6574 40.9598 19.0766 40.4779 18.7791 39.6487C18.5607 39.0409 18.4515 38.134 18.4515 36.928V36.741C18.38 36.8993 18.2996 37.072 18.2104 37.2592C18.0465 37.6045 17.8494 38.0061 17.6189 38.4638C17.3885 38.9215 17.1659 39.2677 16.951 39.5024C16.7271 39.7457 16.5091 39.8676 16.2971 39.8681C16.0723 39.8681 15.9061 39.724 15.7986 39.4359C15.7006 39.1728 15.6516 38.7826 15.6516 38.2654C15.6553 38.0399 15.6704 37.8146 15.6967 37.5905C15.7272 37.3084 15.7717 36.9723 15.8303 36.582C15.8906 36.1833 15.9351 35.8735 15.9639 35.6526C15.9826 35.51 16.0834 35.0308 15.8062 35.0308C15.5959 35.0308 13.4041 39.7111 12.4333 40.8893C12.3334 41.0097 12.2494 41.1067 12.1815 41.1802L11.8362 41.5125L11.8339 41.5181ZM44.7812 61.7866V71.8429C45.7348 70.3392 46.2412 68.5953 46.2412 66.8148C46.2412 65.0342 45.7348 63.2903 44.7812 61.7866ZM30.4413 73.6305C31.1481 73.8852 31.9202 73.8942 32.6327 73.6559C32.9605 73.5443 33.2689 73.3823 33.5467 73.1757C33.8181 72.9747 34.0583 72.7348 34.2597 72.4637C34.5644 72.0477 34.7439 71.5533 34.777 71.0387C34.8138 70.5281 34.7019 70.0177 34.4547 69.5694C34.4471 69.5528 34.437 69.5376 34.4247 69.5243C34.2971 69.307 34.1379 69.1098 33.9525 68.9392C33.7856 68.7833 33.6051 68.6427 33.4131 68.5191C33.1955 68.3879 32.9673 68.2751 32.7309 68.1818C32.451 68.0669 32.2263 67.9819 32.0566 67.9267C31.887 67.8714 31.6421 67.799 31.3219 67.7093C30.5225 67.4695 29.9478 67.2645 29.5981 67.0944C29.0288 66.805 28.6292 66.42 28.3992 65.9393C28.2191 65.5793 28.1491 65.0194 28.1891 64.2595V63.9897C28.1906 63.5833 28.2642 63.1805 28.4066 62.7998C27.5801 64.5479 27.3136 66.5086 27.6435 68.4138C27.9734 70.3191 28.8836 72.076 30.2496 73.4445C30.3137 73.507 30.3779 73.5694 30.443 73.6305H30.4413ZM34.5736 68.1137C34.6634 68.294 34.7362 68.4822 34.791 68.676C34.8752 68.9656 34.9353 69.2616 34.9707 69.561C35.0146 69.8765 35.0272 70.1955 35.0081 70.5134L34.9183 71.1282C34.7782 71.9284 34.3935 72.5934 33.7641 73.1233C33.1347 73.6531 32.4053 73.9182 31.5757 73.9184C31.2456 73.9196 30.917 73.8723 30.6006 73.7781C32.3833 75.3863 34.7156 76.2484 37.1157 76.1862C39.5158 76.1241 41.8004 75.1425 43.4975 73.4442C43.7132 73.2282 43.9183 73.0019 44.1126 72.7653L37.6613 60.8843V73.8436H37.9161C37.9274 73.8446 37.9379 73.8497 37.9455 73.858C37.9531 73.8663 37.9573 73.8772 37.9573 73.8885C37.9573 73.8998 37.9531 73.9107 37.9455 73.919C37.9379 73.9273 37.9274 73.9324 37.9161 73.9334H36.1175C36.1113 73.934 36.105 73.9332 36.0991 73.9312C36.0932 73.9292 36.0877 73.9259 36.0831 73.9217C36.0785 73.9175 36.0748 73.9124 36.0723 73.9066C36.0698 73.9009 36.0685 73.8948 36.0685 73.8885C36.0685 73.8823 36.0698 73.8761 36.0723 73.8704C36.0748 73.8646 36.0785 73.8595 36.0831 73.8553C36.0877 73.8511 36.0932 73.8478 36.0991 73.8458C36.105 73.8438 36.1113 73.8431 36.1175 73.8436H36.3723V60.6592H36.1175C36.0874 60.6592 36.0724 60.6465 36.0724 60.6215C36.0724 60.5964 36.0874 60.5841 36.1175 60.5841H37.9161C37.9459 60.5841 37.9609 60.5968 37.9609 60.6215C37.9609 60.6462 37.9459 60.6592 37.9161 60.6592H37.6613V60.7043L43.4788 71.4285V60.6592H43.224C43.1939 60.6592 43.1789 60.6465 43.1789 60.6215C43.1789 60.5964 43.1939 60.5841 43.224 60.5841H43.8745C43.7532 60.4478 43.628 60.3151 43.4991 60.186C42.4849 59.1721 41.2514 58.4045 39.8937 57.9424C38.536 57.4803 37.0904 57.3361 35.6682 57.5208C34.246 57.7054 32.8851 58.2141 31.6905 59.0076C30.4958 59.8011 29.4993 60.8582 28.7776 62.0975C28.9036 61.9157 29.0455 61.7455 29.2017 61.5889C29.8663 60.919 30.6632 60.5841 31.5924 60.5841C32.0299 60.5835 32.463 60.6702 32.8665 60.8392C33.2723 61.0067 33.6434 61.2482 33.9608 61.5515C34.277 61.8519 34.5315 62.211 34.7102 62.6088V61.9038H34.785V63.0727L34.7102 62.8479C34.4723 62.2122 34.0467 61.6639 33.4898 61.2759C32.9329 60.8878 32.2712 60.6783 31.5924 60.6752C31.2149 60.6749 30.8399 60.7382 30.4834 60.8626C30.1344 60.9815 29.8095 61.1618 29.524 61.3949C29.2434 61.6259 29.0006 61.8992 28.8043 62.2051C28.4147 62.8149 28.2848 63.4647 28.4146 64.1547C28.4361 64.2915 28.4813 64.4235 28.5481 64.5447C28.6259 64.7113 28.7241 64.8676 28.8404 65.0099C28.9616 65.1547 29.1036 65.2808 29.2618 65.3839C29.4268 65.4937 29.5766 65.5862 29.7113 65.6615C29.8875 65.7547 30.0703 65.8348 30.2583 65.9012C30.4881 65.9865 30.6704 66.049 30.8053 66.0886L31.4128 66.2686C31.7425 66.3688 31.9922 66.4467 32.1618 66.5023C32.3315 66.558 32.5588 66.6431 32.8438 66.7575C33.0831 66.8499 33.3139 66.9629 33.5337 67.0951C33.7313 67.2226 33.9169 67.3679 34.0881 67.5292C34.2762 67.7011 34.4401 67.8977 34.5753 68.1137H34.5736ZM64.3591 12.5552L62.1032 14.5021L62.5093 14.973C62.7998 15.3103 63.1194 15.483 63.4688 15.4936C63.8181 15.5043 64.1767 15.3494 64.5441 15.0318C65.2892 14.3893 65.3713 13.7306 64.7902 13.0558L64.3591 12.5552ZM64.3444 11.9935L65.0898 12.8588C65.4785 13.3092 65.6413 13.7589 65.5783 14.2079C65.5209 14.6171 65.2775 15.0067 64.8483 15.3768C64.3585 15.7998 63.867 15.9741 63.3739 15.8997C62.9638 15.8378 62.5889 15.61 62.2492 15.2161L61.5502 14.405L64.3444 11.9935ZM62.7387 10.3662L60.3209 13.1557L59.9018 12.7916L60.4919 10.3461C60.5006 10.3081 60.6032 9.9219 60.7998 9.18765L60.7427 9.13789C60.6868 9.20223 60.5515 9.36442 60.3366 9.62446C60.197 9.79277 60.0781 9.93369 59.98 10.0472L58.5891 11.6512L58.2825 11.384L60.7 8.59455L61.2112 9.03837L60.6542 11.2949C60.6097 11.4806 60.551 11.6963 60.4782 11.9421C60.3914 12.2336 60.3393 12.4096 60.3229 12.4721L60.3824 12.5232C60.8225 11.9766 61.077 11.6637 61.1458 11.5844L62.4322 10.1003L62.7387 10.3662ZM57.2689 8.7662L57.5662 7.87622C57.6407 7.64735 57.7526 7.3399 57.9018 6.95385L57.8397 6.90977C57.5705 7.14442 57.3196 7.3508 57.0869 7.52891L56.3432 8.10665L57.2689 8.7662ZM58.3042 6.82928L57.13 10.5251L56.7593 10.2613L57.1481 9.09882L56.0771 8.33574L55.0949 9.07511L54.7483 8.82832L57.854 6.50869L58.3042 6.82928ZM55.1868 4.8386L53.513 8.12869L53.1246 7.93099L53.9194 6.36843L52.3031 5.54491L51.508 7.10747L51.1206 6.9101L52.794 3.61935L53.1814 3.81638L52.4704 5.21396L54.0871 6.03749L54.7977 4.6399L55.1868 4.8386ZM46.2352 1.60996L45.426 4.47894L46.0241 4.64792C46.4523 4.76881 46.8146 4.73697 47.1112 4.55241C47.4077 4.36784 47.6221 4.04168 47.7543 3.57393C48.0215 2.62662 47.7268 2.03185 46.8704 1.78963L46.2352 1.60996ZM45.9146 1.14978L47.013 1.46002C47.5858 1.62165 47.9695 1.90696 48.1641 2.31593C48.3422 2.68907 48.3533 3.14848 48.1975 3.69415C48.0223 4.31597 47.7084 4.73252 47.2558 4.9438C46.8795 5.11879 46.4412 5.13548 45.941 4.99389L44.9128 4.70302L45.9146 1.14978ZM43.6344 0.640502L43.1762 4.30428L42.6255 4.23749L41.7542 1.87746C41.7402 1.84139 41.6106 1.46347 41.3655 0.743693L41.2901 0.734342C41.2798 0.818721 41.2575 1.02889 41.2233 1.36484C41.201 1.58213 41.1807 1.76558 41.1625 1.91519L40.9544 3.58896C41.3552 3.69415 41.6454 3.9386 41.783 4.3674C41.8271 4.51013 41.8505 4.65848 41.8524 4.80788C41.8588 5.00558 41.8628 5.17322 42.0241 5.3422C42.0431 5.36339 42.0569 5.3888 42.0642 5.41634C48.9826 6.52472 55.1737 9.81247 59.9125 14.5539C62.3814 17.0238 64.4386 19.8732 66.0061 22.9939C65.5466 22.6976 64.9902 22.5597 64.3841 22.5931C62.948 19.9655 61.1443 17.5562 59.0275 15.4382C54.4554 10.8631 48.477 7.69622 41.7957 6.64127C41.4554 7.00695 41.5869 7.45945 41.621 7.88457C41.646 8.20082 41.7212 8.5144 41.788 8.82565C41.8528 9.12887 42.0414 9.29318 42.3513 9.37833C43.3021 9.63915 44.2402 9.94071 45.1899 10.2025C46.0445 10.4383 46.5641 10.9649 46.8173 11.8198C47.2447 13.2582 47.7189 14.6835 48.1705 16.1141C48.2225 16.2764 48.292 16.4317 48.0596 16.5282C48.0215 16.5436 48.0071 16.6952 48.0302 16.767C48.1454 17.1343 48.2583 17.5017 48.4069 17.8567C48.832 18.8739 49.0143 19.9405 49.1082 21.0309C49.1626 21.6764 49.2381 22.3206 49.3306 22.9618C49.3807 23.3218 49.5166 23.6708 49.5563 24.0304C49.5964 24.4001 49.5814 24.7782 49.5624 25.1515C49.5543 25.3225 49.5794 25.436 49.7407 25.5152C50.1701 25.7259 50.5929 25.947 51.0204 26.161C51.2208 26.2612 51.4265 26.3557 51.6298 26.4519C51.7868 26.5267 51.9638 26.6857 52.1011 26.656C52.3585 26.6019 52.5953 26.4399 52.8384 26.3203C52.8615 26.3093 52.8949 26.2769 52.8928 26.2626C52.813 25.962 53.0792 25.9336 53.2362 25.8411C53.6235 25.6137 54.0216 25.407 54.4467 25.1769C54.4424 25.1221 54.434 25.027 54.4237 24.873C54.3235 24.9962 54.2664 25.0717 54.1786 25.1842C54.1432 24.9966 54.0864 24.8443 54.0927 24.6953C54.1328 23.7028 54.1722 22.71 54.2457 21.7195C54.2834 21.1969 54.6017 20.8178 55.0311 20.545C55.3033 20.3717 55.9188 20.4645 56.1472 20.6949C56.2882 20.8326 56.4179 20.9815 56.5349 21.1401C56.6204 21.2627 56.6982 21.276 56.8385 21.2363C57.7769 20.9711 58.6983 20.883 59.5191 21.5789C59.5439 21.5956 59.5706 21.6093 59.5986 21.6196C59.802 21.4417 60.001 21.2583 60.2084 21.0853C60.4575 20.8773 61.1044 20.8482 61.3665 21.0469C61.7916 21.3685 62.0785 21.7946 62.0575 22.338C62.0408 22.7297 62.0184 23.1218 61.9927 23.5131C61.4524 23.8985 60.919 24.4058 60.4198 25.0416L60.4114 25.0042C60.3904 24.9932 60.3717 24.9822 60.3507 24.9708C60.3173 25.048 60.2819 25.1255 60.2438 25.2106C60.024 24.9648 60.028 24.7661 60.1349 24.5364C60.4468 23.8685 60.4468 23.1542 60.4218 22.4388C60.4114 22.1573 60.1546 22.002 59.8521 22.0999C60.0701 22.9404 59.7749 23.7072 59.467 24.4642C59.3668 24.7084 59.2029 24.9361 59.0292 25.1368C58.713 25.4992 58.7694 25.8662 59.1862 26.1123C59.3101 26.1854 59.435 26.2586 59.5585 26.334C58.3773 28.4179 57.5438 31.4078 57.5511 35.3948C57.2746 35.5431 57.0228 35.9291 56.8615 36.2477C56.9844 35.6132 57.6226 33.6499 56.7059 33.2275C56.2243 33.0054 55.5284 33.2515 55.2853 33.9261C54.7944 32.1227 53.2185 34.6788 53.1146 35.0585C53.1243 34.5673 53.0127 34.1568 52.8267 33.8272C52.8297 33.6699 52.8021 33.5135 52.7452 33.3667C52.6952 33.2358 52.6952 33.1329 52.8398 33.0645C52.8688 33.0508 52.9065 33.003 52.9025 32.978C52.8311 32.5696 53.1914 32.2964 53.2208 31.907C53.2502 31.5276 53.3801 31.1556 53.4739 30.7823C53.6356 30.1478 53.7842 29.5052 53.9749 28.8787C54.0877 28.5057 54.2677 28.1521 54.427 27.7944C54.5045 27.6184 54.607 27.4528 54.6471 27.24C54.4918 27.3639 54.3465 27.5019 54.1796 27.6051C54.1084 27.6488 53.9575 27.6615 53.9031 27.6157C53.7795 27.5112 53.6893 27.5356 53.5785 27.6107C53.3397 27.7747 53.1009 27.9423 52.8558 28.1003C52.4601 28.3568 52.083 28.4202 51.6746 28.0793C50.8975 27.4287 50.0997 26.8032 49.3035 26.1757C49.2114 26.1033 49.0775 26.0819 48.9582 26.0495C48.7004 25.9794 48.4366 25.9249 48.1831 25.8448C48.1371 25.8308 48.0953 25.7279 48.093 25.6645C48.0806 25.2433 48.0385 24.8186 48.2312 24.4188C48.5652 23.7262 48.5101 23.0897 48.1811 22.365C47.4775 20.8028 46.8931 19.1861 46.2606 17.5895C46.2102 17.4606 46.1791 17.3244 46.1347 17.1751L45.6889 17.2549C45.5463 16.7179 45.4017 16.1829 45.2594 15.6479L45.1505 15.6633C45.3306 18.2441 45.5107 20.8283 45.6909 23.416C45.6341 23.44 45.576 23.4609 45.5169 23.4784C45.0457 23.5903 45.0397 23.59 45.0493 24.0852C45.0784 25.5806 45.1074 27.0757 45.1445 28.5705C43.8949 29.3533 42.4515 31.4275 42.2725 35.6092C42.2725 35.497 42.2725 35.3848 42.2745 35.2732C42.2956 34.5566 42.1196 33.8279 42.4943 33.1106C41.9833 33.0304 42.0314 32.6604 42.0107 32.3108C41.9289 31.0735 41.8244 29.8395 41.7552 28.6002C41.7342 28.2209 41.5332 27.9874 41.265 27.7179C41.2523 27.8425 41.24 27.9226 41.2376 28.0038C41.2316 29.5446 41.1835 31.0865 41.2336 32.6257C41.2804 34.0423 41.3502 35.4593 41.451 36.8739L40.9167 36.778C42.0752 32.2029 40.344 30.648 38.0891 30.6567C38.0845 30.5725 38.0794 30.4897 38.0751 30.4046C37.9706 28.3484 37.7295 26.307 37.4196 24.2732C37.3671 23.9283 37.4069 23.5579 37.0856 23.2921C37.0225 23.241 37.0562 23.0419 37.0833 22.9207C37.3137 21.9152 37.5398 20.908 37.7976 19.9091C37.9252 19.4082 37.9819 18.9183 37.9191 18.4064C37.8858 18.1479 37.9125 17.8824 37.9125 17.6199L37.833 17.6116C37.8099 17.7742 37.7789 17.9372 37.7642 18.1005C37.634 19.5525 37.1941 20.9287 36.736 22.2999C36.5095 22.9742 36.2601 23.6404 36.0383 24.3163C35.9776 24.5077 35.9629 24.7204 35.9609 24.9234C35.9565 25.224 36.0173 25.5285 35.9839 25.8251C35.9315 26.2926 35.8289 26.1828 35.7368 26.6446C35.6613 27.018 35.3304 27.2016 35.0518 27.3369C34.8468 27.4371 34.5262 27.3369 34.2747 27.2651C34.1996 27.2434 34.1365 27.0066 34.1555 26.8814C34.1672 26.7982 34.1782 26.7334 34.1555 26.6874C34.1702 26.6476 34.0887 26.8383 34.1996 26.5751C34.2053 26.5618 34.2136 26.5418 34.224 26.5127C34.0366 26.2789 34.2841 26.1677 34.2938 25.8164C34.3031 25.4948 34.242 25.412 34.1522 25.1565C33.9401 24.5534 34.2096 24.3864 34.0737 23.9416C34.0624 23.9366 34.0403 23.9239 34.037 23.9353L33.9331 23.9119C33.8072 23.8581 33.9331 24.0121 33.8109 23.7967C33.0819 22.5213 32.4083 21.1685 31.8606 19.8003C31.7604 19.5518 31.704 18.1906 31.6549 17.7889C31.4726 18.4004 30.8691 19.3104 31.2208 19.9442C31.5116 20.4705 31.7551 21.1932 31.9848 21.7666C32.8498 23.9306 32.7529 24.0475 32.2994 26.3798C31.9989 27.9283 31.523 29.2735 31.2238 30.8106C31.157 31.1506 31.4278 31.3403 31.0805 32.9813C30.9165 33.7584 30.7218 34.4744 30.5542 35.2622C30.5373 35.3628 30.53 35.4648 30.5322 35.5668C30.4652 35.5798 30.3992 35.5977 30.3348 35.6202C30.5989 34.8915 30.7459 34.1942 30.2429 33.5537L30.2333 33.5617C29.5423 32.9059 28.8641 33.1944 28.2526 33.8596C28.2482 33.6941 28.2353 33.5289 28.2139 33.3647C28.1871 33.1607 28.1678 33.2785 28.1611 33.0792C28.1554 32.9012 28.1945 32.9379 28.1905 32.804C28.1805 32.5702 28.0339 32.614 27.9778 32.3902C27.9233 32.1742 28.1 32.282 27.902 31.4141C27.8168 31.0407 27.753 30.7068 27.6485 30.3455C27.2745 29.0501 26.9175 27.4735 26.6279 26.1377C26.2876 24.5641 26.4473 23.0319 26.9953 21.6247L27.5667 20.2671C27.8609 19.5241 27.7827 19.4389 27.5229 18.737C27.4227 18.4635 27.2892 18.0123 27.1813 17.7829L26.9432 19.7131C26.9208 19.9496 27.02 19.9208 27.008 20.1416C26.9973 20.3389 26.8744 20.357 26.829 20.4952C26.8153 20.5356 26.7264 21.1942 26.6824 21.3695C26.5307 21.973 26.3528 22.4171 26.1444 22.9792C26.0495 23.2346 25.9366 23.4801 25.8458 23.7272C25.6631 24.2241 25.8642 24.2869 25.2898 24.1573C25.1946 24.6917 25.4127 24.9565 25.39 25.4264C25.3803 25.6197 25.2948 25.8605 25.2607 26.0545C25.2116 26.3327 25.25 26.5414 25.2207 26.7892C24.7575 26.7298 24.9585 26.0064 24.8587 25.581C24.5851 25.6571 24.2873 25.9129 24.1574 26.0926C24.2469 26.2549 24.2726 26.4836 24.2969 26.6984C24.0468 26.8276 24.2863 26.667 24.0966 26.6984L24.0582 27.1392C23.7994 27.0584 23.9657 27.1182 23.8144 26.9108C23.7252 27.1515 23.6317 27.3192 23.3762 27.3449C23.3682 27.1272 23.5676 26.6894 23.617 26.4025C23.6905 25.9734 23.4447 25.7596 23.578 25.3723C23.7449 24.8844 24.4759 24.5851 24.6366 23.947C24.7308 23.5726 24.4492 24.0291 24.7348 23.0556C24.7518 22.9972 24.7682 22.9384 24.7852 22.88C24.4886 23.2984 24.1948 23.7185 23.8979 24.1363C23.6601 24.4703 23.2847 24.4906 22.9348 24.5036C22.6342 24.5137 22.5607 24.6406 22.549 24.9091C22.5217 25.5172 22.5564 25.3966 21.999 25.4878C21.7766 25.5239 21.5542 25.5683 21.3311 25.582C21.1328 25.594 21.0937 25.6802 21.09 25.8662C21.0593 27.5169 21.2236 29.1449 21.621 30.7492C21.6878 31.0127 21.7055 31.2875 21.7683 31.5507C21.812 31.734 21.7599 31.8399 21.5853 31.889C21.3899 31.9441 21.3772 32.058 21.4016 32.2493C21.4393 32.5499 21.4016 32.8584 21.4203 33.162C21.4387 33.4312 21.4537 33.712 21.5398 33.9635C21.8524 34.8688 21.782 35.7975 21.7626 36.7256C21.7609 36.8104 21.7593 36.8952 21.7583 36.9801C20.9608 37.6216 20.1189 38.7604 20.1189 38.7604C19.9185 37.6707 21.8758 27.0427 17.3985 36.79C17.3631 35.496 17.1491 34.5429 16.8054 34.0066C16.7466 33.7935 16.6919 33.5798 16.6545 33.3637C16.6451 33.3083 16.6164 33.2558 16.6114 33.2007C16.582 32.8695 16.4411 32.6664 16.0717 32.6821C15.9004 32.6895 15.863 32.5769 15.8794 32.418C15.9395 31.8389 15.9829 31.2581 16.0464 30.6791C16.0939 30.2893 16.0289 29.894 15.859 29.54C15.7051 29.206 15.7228 28.7919 15.6777 28.4112C15.6212 27.948 15.5802 27.4805 15.5251 26.9515C15.2682 27.2294 15.0388 27.4798 14.8067 27.7279C14.5893 27.9617 14.588 27.9594 14.245 27.8348C14.1762 28.0505 14.058 28.2623 14.05 28.478C14.0259 29.1158 13.9999 29.7604 14.066 30.3925C14.1034 30.7479 14.3175 31.0865 14.4608 31.4278C14.5075 31.5393 14.6027 31.6328 14.6377 31.7464C14.6685 31.8466 14.6454 31.9614 14.6464 32.07C14.5563 32.0109 14.4461 31.9668 14.3793 31.8883C14.2931 31.7881 14.239 31.6599 14.1716 31.5437H14.0841C14.047 31.6689 13.9872 31.7925 13.9775 31.9197C13.9495 32.2847 13.9488 32.6514 13.9204 33.0161C13.9141 33.1026 13.8413 33.183 13.7989 33.2685C13.7618 33.187 13.7027 33.1082 13.692 33.0237C13.6639 32.7947 13.6586 32.5629 13.6389 32.2864C13.3874 32.5949 13.5514 33.0528 13.1149 33.2305L13.3103 32.0112L13.2462 31.9852L12.7483 32.8644L12.6264 32.8077C12.5622 32.429 12.8795 32.1498 12.9767 31.7597C12.7696 31.9294 12.602 32.066 12.4343 32.2032L12.3532 32.1411C12.4247 32.0239 12.4818 31.8943 12.5696 31.7915C13.0508 31.2288 13.2432 30.5762 13.1787 29.8472C13.1219 29.202 13.0368 28.5592 12.9897 27.913C12.9723 27.6752 13.0271 27.4317 13.0515 27.1913C13.0562 27.1455 13.0982 27.0831 13.0805 27.0577C12.8828 26.7712 13.1296 26.6126 13.2655 26.4382C13.693 25.8905 14.1372 25.3559 14.5696 24.8116C14.8368 24.4743 15.1547 24.2178 15.5641 24.0575C16.0767 23.8571 16.5723 23.6137 17.1103 23.3732C16.8999 23.0523 16.8993 22.6599 16.5042 22.505C16.3175 22.4308 16.239 22.1586 15.9759 22.186C15.9555 22.188 15.9168 22.1035 15.9008 22.0545C15.7071 21.456 15.7274 20.8482 15.8613 20.2454C15.9625 19.7996 16.752 19.2987 17.1888 19.2319C17.7769 19.1437 18.2908 19.3578 18.8298 19.4794C19.2306 19.5699 19.634 20.174 19.6126 20.5917C19.5999 20.8392 19.6377 21.089 19.6367 21.3375C19.6357 21.5859 19.5545 21.7913 19.3301 21.9579C19.1163 22.1212 18.9327 22.3207 18.7878 22.5474C18.6468 22.7638 18.7777 22.9768 19.0386 22.9972C20.0581 23.0763 21.0783 23.1428 22.0975 23.2246C22.3697 23.2467 22.6379 23.3268 22.91 23.3425C23.0397 23.3448 23.1652 23.2969 23.2604 23.2089C23.7613 22.689 24.2475 22.1556 24.7297 21.6186C24.7832 21.5585 25.1031 21.1074 25.1118 21.0175C25.1452 20.8556 25.3068 20.6873 25.4538 20.5403L25.6141 19.6523C25.603 19.3922 25.5175 19.4399 25.6314 19.1624C25.949 18.3887 25.8652 16.5523 25.8652 15.6807C25.8652 14.1111 25.776 14.4283 27.1699 13.9775C27.4628 13.8827 28.1755 13.4265 28.4607 13.7584C28.661 13.6916 28.7849 13.6392 28.8687 13.4198C28.5896 13.4646 28.4607 13.4809 28.2182 13.3594C27.6418 13.0705 27.4368 13.4479 26.3604 13.0141L25.9129 12.7469C25.758 12.6193 25.6181 12.5983 25.4885 12.4006C25.3449 12.1819 25.4334 12.0713 25.3122 11.8586C24.7608 10.8901 26.0265 11.0518 26.3287 10.9392C27.1636 10.6296 25.8795 10.087 26.4586 8.6413C26.5239 8.47245 26.6246 8.31953 26.754 8.19281C26.8833 8.06609 27.0382 7.9685 27.2083 7.90661C27.547 7.78372 27.588 7.73964 27.6111 7.6498C22.391 9.27216 17.6849 12.2293 13.9584 16.2287C10.2319 20.2281 7.61412 25.1311 6.36411 30.4527C5.88445 30.6197 5.41422 30.8127 4.9555 31.0307C6.25791 24.6663 9.41475 18.9771 13.8356 14.5536C19.7318 8.65333 27.8776 5.00257 36.8749 5.00257C37.1841 5.00257 37.4925 5.00691 37.7999 5.0156C37.8226 4.78918 37.8871 4.57111 38.0527 4.37508C38.725 3.5766 39.6036 3.42365 40.5554 3.52283L40.9561 0.306885L41.6277 0.390373L42.4205 2.57508C42.4873 2.75408 42.5584 2.96647 42.6349 3.20959C42.725 3.50046 42.7805 3.67712 42.8019 3.7359L42.8797 3.74558C42.9409 3.04495 42.9777 2.64265 42.9902 2.53868L43.2326 0.589074L43.6344 0.640502ZM37.5157 0.360985C37.1722 0.351634 36.9009 0.493341 36.7019 0.786105C36.5212 1.05327 36.4254 1.42061 36.412 1.8838C36.3973 2.41412 36.4975 2.81987 36.7126 3.10105C36.795 3.21375 36.9027 3.3055 37.0271 3.36891C37.1514 3.43231 37.289 3.46559 37.4286 3.46606C37.7754 3.47564 38.0476 3.33315 38.2451 3.0386C38.4259 2.77323 38.5226 2.40811 38.5353 1.94325C38.5504 1.40892 38.4502 1.00239 38.2347 0.723656C38.0575 0.491003 37.8179 0.370113 37.5157 0.360985ZM37.5258 0.000651618C38.0131 0.0140097 38.3898 0.212933 38.6558 0.597422C38.8976 0.943396 39.0108 1.39445 38.9955 1.95059C38.9774 2.58465 38.8014 3.07311 38.4675 3.41597C38.1865 3.70116 37.8369 3.83808 37.4186 3.82673C36.9345 3.81315 36.5586 3.61278 36.2908 3.22562C36.0499 2.87898 35.9371 2.42937 35.9525 1.87679C35.9703 1.24006 36.147 0.751708 36.4825 0.411745C36.7628 0.126329 37.1105 -0.0107027 37.5258 0.000651618ZM34.3198 1.08199L33.9051 1.2513C33.7151 0.729667 33.386 0.498016 32.9176 0.556346C32.5729 0.599315 32.3212 0.781986 32.1625 1.10436C32.0165 1.39824 31.9719 1.77415 32.0289 2.23211C32.0937 2.75352 32.259 3.13801 32.5248 3.38558C32.6259 3.48453 32.7485 3.55884 32.883 3.60275C33.0175 3.64665 33.1603 3.65896 33.3003 3.63872C33.7963 3.57727 34.072 3.26558 34.1275 2.70365L34.5573 2.79315C34.4437 3.50981 34.0379 3.91144 33.3397 3.99805C32.8563 4.0586 32.4505 3.91845 32.1221 3.5776C31.8242 3.27148 31.6413 2.84402 31.5734 2.29523C31.4957 1.66428 31.5995 1.15401 31.8847 0.764398C32.1235 0.439129 32.4516 0.24989 32.8688 0.196681C33.2321 0.152154 33.5461 0.219612 33.8106 0.399055C34.035 0.555567 34.2049 0.78321 34.3205 1.08199H34.3198ZM29.6706 0.771745L29.7514 1.12774L27.9146 1.55252L28.1818 2.70465L29.5727 2.38339L29.6552 2.73972L28.264 3.06098L28.5792 4.43786L30.4527 4.00372L30.5348 4.36038L28.2389 4.89036L27.408 1.29404L29.6706 0.771745ZM25.7486 2.58777L25.3793 2.85193C25.119 2.48213 24.8018 2.36169 24.4275 2.49059C24.1964 2.57052 24.0377 2.68974 23.9513 2.84825C23.9141 2.91618 23.8921 2.99139 23.8869 3.06866C23.8816 3.14593 23.8933 3.22341 23.9209 3.29575C23.9877 3.48977 24.0982 3.615 24.2522 3.67244C24.3891 3.72354 24.5965 3.73656 24.876 3.71285L25.043 3.70517C25.5056 3.6671 25.8431 3.71163 26.0555 3.83875C26.2227 3.93983 26.3487 4.1137 26.4336 4.36038C26.5449 4.68387 26.5143 4.97541 26.3417 5.235C26.1837 5.46877 25.9276 5.64687 25.5736 5.76932C25.2263 5.88888 24.9148 5.9029 24.6366 5.8104C24.3908 5.72958 24.1837 5.56862 24.0128 5.32751L24.3708 5.04432C24.5103 5.26138 24.6853 5.39964 24.8961 5.46142C25.0784 5.51077 25.2716 5.50201 25.4487 5.43637C25.7273 5.34042 25.9129 5.20406 26.0058 5.02728C26.0816 4.88469 26.0886 4.72673 26.0288 4.55241C25.9607 4.35337 25.852 4.22524 25.7029 4.16803C25.5573 4.1097 25.3247 4.09233 25.0053 4.11593L24.8523 4.12261C24.4224 4.15133 24.1048 4.10435 23.8995 3.98168C23.7297 3.88038 23.6021 3.70539 23.5168 3.45671C23.4692 3.32854 23.4522 3.19097 23.4674 3.05507C23.4826 2.91917 23.5295 2.78874 23.6043 2.67426C23.7486 2.44183 23.9816 2.27007 24.3033 2.15898C24.8977 1.95349 25.3795 2.09642 25.7486 2.58777ZM19.451 4.30929L19.6367 4.63022L18.6348 5.20962L20.2972 8.08461L19.9155 8.30535L18.2538 5.43003L17.2616 6.00476L17.0759 5.68383L19.451 4.30929ZM16.2264 7.22802L15.9478 7.58635C15.593 7.30628 15.2546 7.2809 14.9326 7.51021C14.7336 7.65225 14.6153 7.81166 14.5776 7.98843C14.5613 8.06416 14.5616 8.14254 14.5785 8.21814C14.5955 8.29374 14.6287 8.36475 14.6758 8.42624C14.7949 8.59321 14.9366 8.68227 15.1009 8.6934C15.2465 8.70342 15.4492 8.657 15.7104 8.55481L15.867 8.49971C16.2994 8.3314 16.6356 8.27752 16.8756 8.33808C17.0646 8.38795 17.2349 8.51874 17.3865 8.73047C17.5853 9.00898 17.6389 9.2973 17.5471 9.5954C17.4623 9.86457 17.2676 10.108 16.963 10.3258C16.6645 10.5393 16.3689 10.6413 16.0764 10.632C15.8183 10.625 15.5738 10.5298 15.3417 10.3471L15.6045 9.9741C15.7998 10.1417 16.0072 10.225 16.2267 10.2239C16.4155 10.2191 16.5982 10.1556 16.7493 10.0422C16.9887 9.87102 17.1278 9.68724 17.1668 9.49088C17.2002 9.33325 17.1604 9.17896 17.0535 9.02935C16.9313 8.85815 16.7907 8.76642 16.6318 8.75418C16.4728 8.74193 16.2449 8.79158 15.9482 8.90312L15.8036 8.95321C15.3999 9.10327 15.0821 9.1488 14.8501 9.0898C14.6585 9.04104 14.4864 8.90958 14.3339 8.6954C14.2517 8.58605 14.1964 8.45897 14.1723 8.32436C14.1481 8.18976 14.1559 8.05137 14.1949 7.9203C14.2671 7.65648 14.4415 7.4255 14.7182 7.22735C15.2296 6.86179 15.7323 6.86201 16.2264 7.22802ZM12.3308 9.16193L12.5833 9.42642L11.2191 10.7312L12.0356 11.5861L13.0675 10.5986L13.321 10.8631L12.2877 11.8516L13.2635 12.8728L14.6528 11.544L14.9052 11.8085L13.2021 13.4378L10.6524 10.7689L12.3308 9.16193ZM9.34696 14.9817L10.4156 15.9141L10.9499 15.303C11.334 14.8626 11.3499 14.4888 10.9977 14.1816C10.8171 14.0239 10.6168 13.9764 10.3966 14.039C10.198 14.0946 10.0013 14.2338 9.80648 14.4564L9.34696 14.9817ZM8.1631 13.9465L9.08314 14.7503L9.52028 14.2493C9.728 14.0119 9.83653 13.7895 9.84455 13.5848C9.84798 13.5003 9.83165 13.4162 9.79686 13.3392C9.76208 13.2621 9.7098 13.1943 9.64418 13.141C9.47954 12.997 9.3179 12.9489 9.15794 12.9954C9.01011 13.0399 8.84058 13.1711 8.64933 13.3891L8.1631 13.9465ZM7.61909 14.0366L8.42292 13.1152C8.72325 12.7708 9.00599 12.583 9.27115 12.5519C9.48822 12.5263 9.70117 12.6042 9.91 12.7856C9.99303 12.854 10.0602 12.9395 10.1069 13.0364C10.1536 13.1333 10.1787 13.2391 10.1805 13.3467C10.1825 13.5375 10.1208 13.7296 9.99549 13.9231L10.0269 13.9505C10.2613 13.7414 10.4973 13.6348 10.7349 13.6305C10.941 13.6265 11.1314 13.7008 11.3059 13.8533C11.5664 14.081 11.6823 14.3501 11.6536 14.6604C11.6284 14.9341 11.4934 15.2111 11.2485 15.4916L10.3999 16.4644L7.61909 14.0366ZM56.3426 21.648C56.0116 21.6096 55.7979 21.7455 55.7602 21.9957C55.6576 22.6465 55.5778 23.2954 55.7855 23.9463C55.8607 24.1831 55.9341 24.4472 55.6954 24.6623C55.6473 24.6012 55.5952 24.5401 55.5194 24.4422C55.4502 24.6549 55.3915 24.8303 55.3243 25.0383C55.2512 24.9167 55.2071 24.8429 55.1487 24.7484C55.0859 24.858 55.0375 24.9411 54.9727 25.0533C54.9266 24.9605 54.8972 24.9007 54.8391 24.7838C54.77 24.9598 54.7219 25.0824 54.6885 25.1635C55.1009 25.3305 55.4803 25.4865 55.859 25.6411C55.9779 25.6957 56.0995 25.7443 56.2233 25.7867C56.5312 25.8785 56.7366 25.6995 56.6528 25.3886C56.6131 25.2327 56.5065 25.0881 56.41 24.9545C56.035 24.4369 55.8153 23.8905 56.0327 23.244C56.0625 23.1744 56.0755 23.0988 56.0704 23.0232C55.9953 22.5434 56.0871 22.0955 56.3449 21.6487L56.3426 21.648Z" fill="url(#paint0_linear_546_78)"/>
<defs>
<linearGradient id="paint0_linear_546_78" x1="35.5" y1="0" x2="35.5" y2="77.4455" gradientUnits="userSpaceOnUse">
<stop stop-color="#522E79"/>
<stop offset="0.53125" stop-color="#E02348"/>
<stop offset="1" stop-color="#E97A20"/>
</linearGradient>
</defs>
</svg>
