<svg width="120" height="38" viewBox="0 0 120 38" fill="none" xmlns="http://www.w3.org/2000/svg">
<path d="M106.405 18.2932C108.901 15.8013 108.832 19.0178 108.708 20.3933C108.671 20.8227 108.652 21.2079 108.652 21.5491C108.652 22.3937 108.715 23.0233 108.842 23.4381C109.332 25.0331 110.508 22.8221 110.75 22.2822C111.325 21.0019 111.661 18.4199 112.188 17.7932C112.664 17.2263 113.61 16.5174 114.164 17.4554C114.804 18.5454 114.103 20.6646 113.605 21.7079C113.068 22.8114 113.11 24.7623 113.605 25.818C113.726 26.0775 113.872 26.2712 114.039 26.3979C115.379 27.4169 122.137 14.7788 117.606 23.6903C116.892 25.0979 115.808 26.7064 114.706 27.8398C114.315 28.2425 114.014 28.4439 113.803 28.4439C113.013 28.4439 112.427 27.91 112.044 26.8421C111.675 25.8174 111.491 24.2882 111.491 22.2546V21.9399C110.855 23.3384 109.928 25.5398 108.957 26.5955C108.578 27.0057 108.21 27.2111 107.851 27.2114C107.471 27.2114 107.19 26.9686 107.009 26.4829C106.253 24.46 107.981 19.0566 107.024 19.0566C105.97 19.0566 103.754 24.4999 103.32 25.5269C103.316 23.0074 104.607 20.0875 106.405 18.2932ZM100.36 23.071C100.425 23.1422 100.484 23.2191 100.535 23.3007C103.869 19.5932 103.126 15.6234 100.794 21.9286C100.656 22.3042 100.493 22.7 100.36 23.071ZM80.0275 18.5105C80.1268 18.6433 80.2498 18.7567 80.3904 18.845C80.6769 19.0291 80.9887 19.1708 81.3161 19.2655C83.475 11.1614 78.4121 16.3102 80.0292 18.5083L80.0275 18.5105ZM83.5489 19.1236L83.7747 18.9035L83.8712 18.9474C83.7533 19.2616 83.58 19.7604 83.5151 20.0611C83.2611 21.2434 83.1922 23.1059 83.4812 24.2837C83.513 24.4385 83.5692 24.5873 83.6477 24.7246C84.1438 25.488 86.3801 19.6478 86.4868 19.3534C86.5251 19.2481 86.5658 19.145 86.6087 19.0414C86.1712 18.9153 85.7191 18.8264 85.5927 18.327C85.5711 18.2401 85.5607 18.1508 85.5617 18.0612C85.5617 17.5055 86.4354 16.6317 86.9259 16.4076C87.9012 15.9606 88.3471 16.7533 88.6158 17.5123C88.819 18.0877 88.6908 19.5318 88.6683 20.1686C88.6118 21.6617 88.5554 24.0833 89.1616 23.5721C89.6216 23.183 90.3028 21.2215 90.4541 20.7485L90.4575 20.739C90.6042 20.3669 90.7295 19.9868 90.8328 19.6005C91.1579 18.4019 90.8893 17.9503 91.8437 17.4132C92.0661 17.3569 92.4454 17.2668 92.4454 17.6418C92.4454 17.9148 92.4556 18.439 92.3889 18.6963C92.1541 19.6337 91.2601 26.1231 93.0516 21.865C93.3423 21.1719 94.4525 17.3828 94.5067 17.3225C94.6608 17.1503 95.6242 16.5118 95.6242 17.1959C95.6242 17.4352 95.6282 18.0522 95.5678 18.256C95.0152 20.0937 94.8961 22.0992 95.1326 23.9988C95.1642 24.2556 95.2246 25.1812 95.6406 24.6824C96.1988 23.9465 97.173 20.5791 97.8339 20.5791C97.9626 20.5791 98.1839 20.7643 98.2855 20.8499C98.4621 15.1673 99.547 7.01308 103.47 2.52918C104.805 1.0034 105.797 0.258523 107.803 0.0321883C108.835 -0.0837939 111.78 0.0479498 111.78 1.5439C104.217 -1.31681 99.3556 12.8375 99.3556 19.426V21.521C99.3516 21.6496 99.3647 21.7781 99.3946 21.9033L99.8377 22.4415L100.492 20.7142C100.757 19.9823 101.591 18.0854 102.242 17.6435C102.606 17.3957 103.065 17.4639 103.227 17.8878C103.529 18.6659 104.15 19.9462 103.971 20.6078C103.76 21.3892 103.046 22.0041 102.496 22.5575C102.029 23.0496 101.627 23.5298 101.184 24.0214L104.713 28.4692C106.816 31.213 108.741 33.2701 110.488 34.6405C117.769 40.3501 123.639 30.7517 115.033 30.7557C122.565 28.2632 121.5 39.2438 112.051 37.4691C111.471 37.3583 110.9 37.2021 110.344 37.0018C106.859 35.7632 105.306 32.4492 103.391 29.5103C103.071 28.9649 102.586 28.2044 101.937 27.2289C101.343 26.3356 100.614 25.2658 99.7496 24.0197C99.7496 24.4656 99.4019 27.9642 98.8036 28.3623C98.0603 28.8549 97.1104 27.5999 97.3096 26.9052C97.383 26.6484 97.4727 26.3185 97.5664 25.9565C97.8486 24.8687 98.1703 23.4904 98.2251 22.9162C98.242 22.7399 98.2505 22.5907 98.2505 22.4697C98.2505 19.7497 96.5008 24.6835 95.7038 25.7352C94.1725 27.7519 93.7063 24.5529 93.7458 23.3418C93.7549 23.0633 93.768 22.7919 93.7853 22.5277L93.8181 22.0868C93.7202 22.3496 93.6275 22.586 93.5398 22.7962C93.4442 23.0259 93.3536 23.2324 93.2678 23.4156C91.9696 26.1794 90.3926 26.0437 90.6003 22.9843C90.6086 22.8585 90.6198 22.7315 90.6341 22.6031C90.3331 23.3872 90.0825 23.9589 89.8823 24.3181C89.6189 24.7951 89.3471 25.1607 89.0667 25.4148C88.7732 25.6776 88.4675 25.824 88.1496 25.854C88.0353 25.8664 87.9198 25.8484 87.8148 25.8019C87.7098 25.7553 87.6191 25.6818 87.5518 25.5888C87.4092 25.4101 87.3031 25.1399 87.2335 24.7781C87.1563 24.3454 87.1062 23.9084 87.0834 23.4696C87.0499 22.9441 87.0333 22.3319 87.0337 21.633V20.5768L86.5821 21.628C86.4854 21.9076 86.3914 22.1606 86.2999 22.3869C86.0527 22.9933 83.6714 27.1923 82.7819 27.1923C80.9108 27.1923 81.4809 23.035 81.7095 21.9466C81.7847 21.5886 81.86 21.2569 81.9352 20.9518H81.6722C81.5319 21.3583 81.3844 21.7323 81.2297 22.0739C80.7432 23.1481 79.7526 24.6638 78.6898 25.2487C76.6985 26.3388 75.7966 23.8175 77.1055 22.1099C79.016 19.6185 76.9017 23.9977 78.8253 23.5372C79.7142 23.3255 80.5321 21.5931 80.8273 20.8121C79.9852 20.6213 78.626 20.0425 78.3054 19.1355C77.8082 17.8253 78.3399 16.3024 79.283 15.3272C80.1765 14.4022 81.9556 13.4456 82.367 15.3649C82.5804 16.6976 82.3162 18.113 82.0763 19.4282C82.1689 19.4429 82.2598 19.4547 82.349 19.4631C82.7249 19.4941 83.2729 19.39 83.5489 19.1214V19.1236ZM75.3083 27.0251C75.4652 28.3114 75.6556 29.2895 75.8795 29.9595C76.0872 30.5822 76.3117 30.9229 76.5529 30.9814C77.1851 29.6893 76.1296 27.9524 75.3078 27.0228L75.3083 27.0251ZM78.3359 8.54337C78.3375 8.60668 78.3318 8.66996 78.319 8.73198C78.2936 8.83389 78.2377 8.88512 78.1496 8.88512C74.7682 8.88512 75.025 19.5926 75.025 22.2045C75.025 22.8103 75.038 23.4071 75.0639 23.9949C75.0891 24.5741 75.1268 25.1461 75.1768 25.711C75.5615 26.0954 75.915 26.5095 76.234 26.9496C76.3919 27.1685 76.5372 27.3961 76.6692 27.6315C76.7975 27.8607 76.9119 28.0974 77.0118 28.3403C77.3312 29.133 78.0509 30.7956 77.2725 31.4904C77.1224 31.6244 76.4332 32.0619 76.2566 32.0619C75.9555 32.0619 75.6302 31.88 75.2807 31.5163C74.9492 31.1717 74.5881 30.6584 74.1975 29.9764C73.463 28.6492 72.9534 26.9874 72.6685 24.9909C72.3123 24.8123 71.9462 24.6542 71.5718 24.5174C70.3346 24.0636 68.9828 23.8328 67.6711 23.7337C67.3205 25.6954 67.1437 27.6842 67.1428 29.6769V30.1915L66.895 29.7411C66.0811 28.2682 66.5473 25.3495 66.7082 23.6999H66.4824C64.6853 23.6999 59.023 24.0433 59.023 26.7672C59.023 27.6264 60.0802 28.3437 58.3914 28.3437C58.0629 28.3437 57.8131 28.2453 57.6418 28.0486C57.4706 27.852 57.3875 27.574 57.3924 27.2148C57.3924 26.8331 57.5918 26.4153 57.9907 25.9615C59.9148 23.7719 64.0808 23.1008 66.8138 22.9972L66.8504 22.7281C66.8685 22.5795 66.8866 22.4269 66.9029 22.2721C67.1287 20.1241 68.4269 16.5917 66.1003 15.2146C63.8426 13.8358 60.1022 14.2575 57.8546 15.5445C57.4187 15.789 57.0174 16.0904 56.6614 16.4409C55.567 17.5326 54.9597 19.2683 56.5344 20.2885C58.3575 21.4709 62.4259 20.9794 63.6422 19.1625C64.5419 17.8112 63.7246 16.8778 62.1629 17.032C61.8705 17.0658 61.5798 17.1097 61.2886 17.152L61.7605 16.8316C63.2669 15.8108 64.7519 16.4375 64.7519 18.2774C64.7519 21.0289 59.2911 21.9838 57.0808 21.4168C56.6187 21.3065 56.182 21.1093 55.7939 20.8358C53.898 19.4524 54.7655 17.0202 56.2274 15.6132C58.5573 13.3696 62.9536 12.2053 66.1144 12.967C66.695 13.1008 67.2508 13.325 67.7614 13.6314C68.2543 13.9317 68.6246 14.304 68.8722 14.7484C69.1198 15.1928 69.2436 15.7056 69.2436 16.2866C69.2422 16.5583 69.222 16.8295 69.1832 17.0985C68.9292 18.9288 68.2383 21.1404 67.8286 22.9989C69.6122 23.0087 71.1798 23.3212 72.5314 23.9363C72.5144 23.7111 72.5009 23.4794 72.4907 23.241C72.4783 22.919 72.471 22.5935 72.471 22.2653C72.471 18.4261 72.9468 9.92277 77.3166 8.13856C77.6298 8.02595 78.3359 8.07607 78.3359 8.54337ZM9.8413 16.7483C9.66837 16.4177 9.42157 16.1313 9.11997 15.911C8.85524 15.7279 8.54895 15.6133 8.22874 15.5777C7.48935 16.5101 6.93301 17.4695 6.55974 18.4559C6.18336 19.444 5.99057 20.4922 5.9908 21.5491C5.9908 24.8231 8.15142 25.4086 9.57885 22.9133C10.5643 21.1905 10.8257 18.5314 9.8413 16.7483ZM20.0009 29.986C20.0952 29.9984 20.1872 30.0119 20.2786 30.026C21.938 30.294 23.6138 30.9105 22.4799 32.8C22.0938 33.4418 21.8088 33.6045 21.2162 33.9744C22.1542 32.336 21.9804 30.6751 19.4376 30.6751C15.8332 30.6751 13.1347 31.9312 9.80462 32.8202C3.96113 34.3832 0 31.1199 0 25.1412C0.0016774 24.6403 0.0430089 24.1403 0.123609 23.6458C0.760844 19.6247 3.25504 15.124 7.82349 15.124C8.39896 14.4938 9.03133 13.9179 9.71262 13.4034C11.8236 11.814 19.651 8.57997 19.651 13.3155C19.651 13.7885 19.0188 13.8628 19.0188 13.4203C19.0188 9.3102 11.8777 12.2728 10.062 13.7327C9.50257 14.1829 8.98531 14.6829 8.5166 15.2264C8.8626 15.3107 9.19013 15.4576 9.48289 15.6599C9.83524 15.9093 10.1293 16.2318 10.3448 16.6053C11.525 18.5933 11.0904 21.4439 9.91073 23.3227C9.23906 24.3924 8.30043 25.1423 6.98814 25.1423C5.19609 25.1423 4.8676 23.2483 4.91219 21.838C4.91349 20.6987 5.1438 19.5713 5.5895 18.5223C6.00943 17.5202 6.6239 16.5371 7.43291 15.5732C6.71439 15.6036 5.92363 15.8255 5.35977 16.2736C3.11732 18.0562 2.46823 22.2281 2.46823 24.9053C2.46823 25.4207 2.48968 25.9086 2.53257 26.3692C2.98863 31.2444 5.14247 32.6001 9.83566 31.7742C12.5805 31.2911 16.1059 29.9162 18.7722 29.9162L18.7474 29.9032C17.5988 29.334 18.2145 27.9935 18.5374 27.0803C19.3327 24.8344 19.9648 23.3424 20.9774 21.0205C21.2873 20.2621 21.1366 19.7768 20.5366 20.4574C20.1697 20.9829 19.4905 22.0437 18.499 23.6396L17.8708 24.7657C17.8285 24.8422 17.7901 24.9149 17.7579 24.983C17.1489 26.1935 16.7267 25.9142 16.6567 25.1384C16.615 24.6705 17.3436 19.1175 16.891 19.1175C16.3209 19.1175 15.0758 21.6955 15.0171 21.8402C14.5757 22.9629 14.0502 23.348 13.6788 24.7246L13.6715 24.737C13.2036 25.6203 11.941 25.3253 12.5426 24.3322C12.6736 24.1254 12.8223 23.9302 12.9868 23.7489C13.0698 23.3962 13.1324 23.039 13.1742 22.6791C13.2174 22.3053 13.2389 21.9293 13.2386 21.5531C13.2373 21.3577 13.2144 21.163 13.1703 20.9726C13.146 20.8662 13.1138 20.7564 13.0794 20.6432C12.5263 22.1634 12.1899 23.6909 10.728 24.4763L10.9436 24.0856C11.74 22.6403 12.0945 21.1894 12.73 19.7103C12.4303 18.7267 12.7599 16.2399 13.6179 15.839C14.3674 15.4871 15.0797 15.6222 15.0797 16.545C13.9509 19.9794 14.3657 20.6838 14.206 22.0418C14.6575 21.3284 14.5853 21.3763 14.9273 20.4884C15.14 19.8355 15.3992 19.1986 15.7029 18.5826C15.9331 18.1322 17.8003 15.2957 18.3556 17.2432L18.3607 17.2606V17.5421C18.3571 19.2555 18.2427 20.9669 18.0181 22.6656C17.9805 22.9374 17.9415 23.1827 17.9013 23.4015C18.4093 22.4258 19.2294 20.8273 19.9208 20.0132C20.1962 19.6889 21.0965 18.8934 21.6237 19.3061C22.6961 20.159 21.8359 22.9899 21.364 24.0743C20.8493 25.2566 19.9479 26.8714 19.8045 28.0847C19.791 28.1973 19.7831 28.2874 19.7803 28.3521C22.7339 26.2318 23.6054 20.7851 26.0979 18.2977C26.587 17.8097 27.0461 17.5658 27.4751 17.5658C29.0696 17.5658 28.4814 19.5059 28.4013 20.3961C28.3636 20.8255 28.3448 21.2108 28.3448 21.552C28.3448 22.3965 28.4084 23.0261 28.5356 23.4409C28.6485 23.8069 28.8035 23.9898 29.0007 23.9898C29.4522 23.9898 29.9331 23.4216 30.4434 22.285C30.7086 21.6942 30.9073 21.2021 31.0394 20.8088C31.1681 20.4255 31.2324 20.1401 31.2324 19.9524C31.2324 18.332 32.9172 15.8626 33.8559 17.4605C34.0165 17.7345 34.0971 18.1369 34.0974 18.6676C34.0974 21.3138 31.956 22.968 33.2965 25.823C34.6782 28.7671 37.4479 21.3481 38.3267 22.8919C38.3453 23.1279 38.0061 25.3478 38.0219 25.5122L38.0366 25.6716C38.5778 24.4273 41.2143 16.9098 42.6344 16.9098C42.6994 16.9082 42.7642 16.9171 42.8263 16.9363C43.6532 17.2144 43.297 19.4474 43.2648 19.9603C43.2569 20.0926 42.5813 26.2183 43.0808 26.2183C43.8411 26.2183 46.7981 20.9743 47.0267 20.605C47.3863 20.0155 48.4338 17.76 48.6398 17.5472C48.7727 17.4077 48.9335 17.2975 49.1117 17.2238C49.2899 17.1501 49.4816 17.1145 49.6744 17.1193C50.4025 17.1193 50.7177 17.5509 50.6198 18.4142C50.5634 19.1068 50.1373 19.8218 50.0024 20.7226C49.7975 22.1369 49.6507 23.4043 49.6812 24.8327C49.685 25.0203 49.691 25.2118 49.6993 25.407C50.4663 26.3551 52.3075 25.5426 52.308 24.5309C52.0791 24.5161 51.8549 24.4589 51.6471 24.362C50.7519 23.9347 50.4838 22.7135 50.836 21.8504C50.9032 21.6822 50.9953 21.5251 51.1092 21.3842C51.2198 21.2481 51.3617 21.1407 51.5229 21.0711C52.5462 20.6314 54.1514 21.5216 54.2976 22.7039C54.3073 22.7835 54.3119 22.8636 54.3112 22.9437V23.0209C54.2783 23.4505 54.1599 23.8693 53.9629 24.2528C53.8288 24.5349 53.6502 24.7938 53.4341 25.0196C53.2738 25.1592 53.1123 25.2934 52.9498 25.4222C51.9903 26.1839 51.1877 26.7098 49.9126 26.7098H49.9053C49.4395 26.6874 48.9861 26.5521 48.5845 26.3157C48.1686 26.0615 47.8137 25.7194 47.5449 25.3135L47.5262 25.2859C47.3462 23.7055 47.5578 22.4269 47.8242 20.8786C47.7588 20.9872 47.6854 21.1038 47.6058 21.2209C46.1671 23.3795 45.141 25.4863 43.7705 27.5143C43.2942 28.2275 42.8803 28.7646 42.5288 29.1257C42.1571 29.5067 41.8434 29.6972 41.5879 29.6972C39.3929 29.6972 42.1913 20.6551 41.8515 19.8837C41.129 20.6021 40.1311 23.9898 39.3545 25.5089C39.1539 25.8996 38.9511 26.3125 38.746 26.7475C37.839 28.673 36.4545 28.1432 35.9109 27.4749C35.7585 27.7035 35.9584 25.908 35.7981 26.1276C35.2381 26.884 34.7734 27.4522 34.4039 27.8324C33.2237 29.0446 32.2422 28.2322 31.7393 26.8342C31.3701 25.8095 31.1856 24.2805 31.1856 22.2473V21.932C31.0648 22.1989 30.929 22.4901 30.7781 22.8058C30.5011 23.388 30.1679 24.0649 29.7785 24.8366C29.389 25.6083 29.0127 26.192 28.6496 26.5876C28.2711 26.9979 27.9027 27.2034 27.5445 27.2041C27.1644 27.2041 26.8835 26.9613 26.7018 26.4756C26.5362 26.0319 26.4534 25.3741 26.4534 24.5022C26.4597 24.1219 26.4851 23.7421 26.5296 23.3643C26.5812 22.8888 26.6565 22.322 26.7554 21.664C26.8574 20.9918 26.9326 20.4695 26.9812 20.0971C27.0128 19.8567 27.1832 19.0488 26.7148 19.0488C26.3592 19.0488 22.6549 26.9395 21.0141 28.9258C20.8451 29.1289 20.7033 29.2924 20.5885 29.4162L20.0049 29.9764L20.0009 29.986Z" fill="url(#paint0_linear_546_110)"/>
<defs>
<linearGradient id="paint0_linear_546_110" x1="60" y1="-40.0108" x2="60" y2="90.5575" gradientUnits="userSpaceOnUse">
<stop stop-color="#522E79"/>
<stop offset="0.53125" stop-color="#E02348"/>
<stop offset="1" stop-color="#E97A20"/>
</linearGradient>
</defs>
</svg>
