<svg width="66" height="67" viewBox="0 0 66 67" fill="none" xmlns="http://www.w3.org/2000/svg">
<path d="M12.7998 33.2C12.7998 32.432 13.1046 31.6952 13.6482 31.1516L15.5514 29.2484C16.095 28.7048 16.8318 28.4 17.5998 28.4C18.3678 28.4 19.1046 28.7048 19.6482 29.2484L26.3514 35.9516C26.895 36.4952 27.6318 36.8 28.3998 36.8C29.1678 36.8 29.9046 36.4952 30.4482 35.9516L57.5514 8.8484C58.095 8.3048 58.8318 8 59.5998 8C60.3678 8 61.1046 8.3048 61.6482 8.8484L63.5514 10.7516C64.095 11.2952 64.3998 12.032 64.3998 12.8C64.3998 13.568 64.095 14.3048 63.5514 14.8484L30.4482 47.9516C29.9046 48.4952 29.1678 48.8 28.3998 48.8C27.6318 48.8 26.895 48.4952 26.3514 47.9516L13.6482 35.2484C13.1046 34.7048 12.7998 33.968 12.7998 33.2V33.2Z" stroke="#22C38E" stroke-width="3" stroke-miterlimit="10"/>
<path d="M19.8729 64.628C18.3645 64.0676 16.9065 63.4052 15.5049 62.6492L19.8729 64.628Z" fill="#22C38E"/>
<path d="M19.8729 64.628C18.3645 64.0676 16.9065 63.4052 15.5049 62.6492" stroke="#22C38E" stroke-width="3" stroke-miterlimit="10"/>
<path d="M12.6357 60.9188C8.13928 57.902 4.38568 53.8652 1.70728 49.1384L12.6357 60.9188Z" fill="#22C38E"/>
<path d="M12.6357 60.9188C8.13928 57.902 4.38568 53.8652 1.70728 49.1384" stroke="#22C38E" stroke-width="3" stroke-miterlimit="10"/>
<path d="M49.274 7.4696C44.39 4.0244 38.432 2 32 2C15.4316 2 2 15.4316 2 32C2 48.5684 15.4316 62 32 62C48.5684 62 62 48.5684 62 32C62 30.0368 61.8116 28.118 61.4516 26.2592" stroke="#522E79" stroke-width="3" stroke-miterlimit="10"/>
</svg>
